<svg xmlns="http://www.w3.org/2000/svg" xml:space="preserve" fill-rule="evenodd"
  stroke-linejoin="round" stroke-miterlimit="2" clip-rule="evenodd" viewBox="0 0 31 200">
  <path fill="none" d="M-339.953-1028.76h1441.32V386.96h-1441.32z"/>
  <path d="M0 100.918v-1.836c3.469-.511 6.531-2.653 8.469-6.123 1.225-2.245 1.633-3.979 2.041-7.551.204-2.755.408-5.918.408-8.367V26.224c0-5.51.613-10.714 1.531-14.387 1.327-4.592 4.898-8.266 10-10.102C24.694.918 26.429.51 29.796 0l.306 1.837c-4.694 1.428-6.735 2.755-8.265 5.306-2.041 3.469-2.959 8.775-2.959 17.143v51.53c0 15-3.776 21.633-13.776 24.184 10 2.551 13.776 9.184 13.776 24.184v51.428c0 8.47.918 13.776 2.959 17.143 1.53 2.551 3.571 3.878 8.265 5.408L29.796 200c-6.735-1.02-10.51-2.653-13.572-5.714-2.755-2.551-3.877-5.51-4.693-11.021-.409-2.653-.613-6.428-.613-9.489v-50.919c0-3.877-.408-9.081-.816-11.53C8.98 105.816 4.898 101.531 0 100.918Z"/>
</svg>