<svg xmlns="http://www.w3.org/2000/svg" xml:space="preserve" fill-rule="evenodd"
  stroke-linejoin="round" stroke-miterlimit="2" clip-rule="evenodd" viewBox="0 0 31 600">
  <path fill="none" d="M-1113.42-815.722H327.9v1415.72h-1441.32z"/>
  <path d="M19.184 573.776V323.061c0-7.041.816-13.061 2.245-16.02 1.632-3.368 5.102-5.817 8.673-6.123v-1.836c-4.592-.409-8.98-5-10.102-10.409-.408-2.449-.816-7.653-.816-11.53V26.327c0-5.511-.613-10.817-1.531-14.388-1.326-4.592-4.898-8.266-10-10.204C5.408.918 3.673.51.306 0L0 1.837c4.694 1.53 6.735 2.857 8.265 5.408 2.041 3.367 2.959 8.673 2.959 17.143v251.428c0 11.429 2.143 17.653 7.449 21.429 1.939 1.326 2.347 1.531 6.327 2.755-4.592 1.224-7.347 2.857-9.388 5.408-2.755 3.572-4.388 10.408-4.388 19.184v251.122c0 8.368-.918 13.674-2.959 17.143-1.53 2.551-3.571 3.878-8.265 5.306L.306 600c6.735-.918 10.51-2.551 13.572-5.612 2.755-2.653 3.877-5.51 4.693-11.021.409-2.653.613-6.428.613-9.591Z"/>
</svg>